<svg xmlns="http://www.w3.org/2000/svg" xmlns:xlink="http://www.w3.org/1999/xlink" width="7215" height="1823" viewBox="0 0 7215 1823"><defs><clipPath id="b"><rect width="7215" height="1823"/></clipPath></defs><g id="a" clip-path="url(#b)"><rect width="7215" height="1823" fill="#fff"/><text transform="translate(3620.5 112)" fill="#101010" font-size="50" font-family="Roboto-Bold, Roboto" font-weight="700"><tspan x="0" y="0">User</tspan></text><line y2="39" transform="translate(3672 147.5)" fill="none" stroke="#000" stroke-width="5"/><line x1="1313" transform="translate(3035.5 186.5)" fill="none" stroke="#000" stroke-width="5"/><line x1="6496" transform="translate(417.5 1294.5)" fill="none" stroke="#000" stroke-width="5"/><line y1="42" transform="translate(3403.5 186.5)" fill="none" stroke="#000" stroke-width="5"/><text transform="translate(3286 272)" fill="#101010" font-size="45" font-family="Roboto-Medium, Roboto" font-weight="500"><tspan x="0" y="0">getLibrary()</tspan></text><text transform="translate(3273 316)" fill="#101010" font-size="35" font-family="Roboto-Regular, Roboto"><tspan x="0" y="0">Array&lt;Modpack&gt;</tspan></text><line y1="42" transform="translate(3716.5 186.75)" fill="none" stroke="#000" stroke-width="5"/><line y1="42" transform="translate(3568.5 827.5)" fill="none" stroke="#000" stroke-width="5"/><line y1="42" transform="translate(3592.5 1097.5)" fill="none" stroke="#000" stroke-width="5"/><line y1="42" transform="translate(3862.75 1097.5)" fill="none" stroke="#000" stroke-width="5"/><line y1="42" transform="translate(4158.25 1097.5)" fill="none" stroke="#000" stroke-width="5"/><line y1="42" transform="translate(4681.25 1097.5)" fill="none" stroke="#000" stroke-width="5"/><line y1="42" transform="translate(4931.25 1097.5)" fill="none" stroke="#000" stroke-width="5"/><line y1="42" transform="translate(5215.5 1097.5)" fill="none" stroke="#000" stroke-width="5"/><line y1="42" transform="translate(5460.5 1097.5)" fill="none" stroke="#000" stroke-width="5"/><line y1="42" transform="translate(4420.75 1097.5)" fill="none" stroke="#000" stroke-width="5"/><line y1="42" transform="translate(3568.5 827.5)" fill="none" stroke="#000" stroke-width="5"/><line y1="42" transform="translate(3845 640.5)" fill="none" stroke="#000" stroke-width="5"/><line y1="42" transform="translate(3570 962)" fill="none" stroke="#000" stroke-width="5"/><line y1="42" transform="translate(4129.5 641)" fill="none" stroke="#000" stroke-width="5"/><line y1="42" transform="translate(4466.5 641)" fill="none" stroke="#000" stroke-width="5"/><line y1="42" transform="translate(4746 640.5)" fill="none" stroke="#000" stroke-width="5"/><line y1="42" transform="translate(5175.5 641)" fill="none" stroke="#000" stroke-width="5"/><line y1="42" transform="translate(5460.5 640.5)" fill="none" stroke="#000" stroke-width="5"/><line y1="42" transform="translate(5715 641)" fill="none" stroke="#000" stroke-width="5"/><line y1="42" transform="translate(6158 641)" fill="none" stroke="#000" stroke-width="5"/><line y1="42" transform="translate(3903.5 827.5)" fill="none" stroke="#000" stroke-width="5"/><text transform="translate(3570 272)" fill="#101010" font-size="45" font-family="Roboto-Medium, Roboto" font-weight="500"><tspan x="0" y="0">getDiscovery()</tspan></text><text transform="translate(3459 913)" fill="#101010" font-size="45" font-family="Roboto-Medium, Roboto" font-weight="500"><tspan x="0" y="0">getSlides()</tspan></text><text transform="translate(3500 1183)" fill="#101010" font-size="45" font-family="Roboto-Medium, Roboto" font-weight="500"><tspan x="0" y="0">getTitle()</tspan></text><text transform="translate(3699.75 1183)" fill="#101010" font-size="45" font-family="Roboto-Medium, Roboto" font-weight="500"><tspan x="0" y="0">getDescription()</tspan></text><text transform="translate(4043.75 1183)" fill="#101010" font-size="45" font-family="Roboto-Medium, Roboto" font-weight="500"><tspan x="0" y="0">getButton()</tspan></text><text transform="translate(4573.25 1183)" fill="#101010" font-size="45" font-family="Roboto-Medium, Roboto" font-weight="500"><tspan x="0" y="0">getName()</tspan></text><text transform="translate(4806.75 1183)" fill="#101010" font-size="45" font-family="Roboto-Medium, Roboto" font-weight="500"><tspan x="0" y="0">getEyebrow()</tspan></text><text transform="translate(5096 1183)" fill="#101010" font-size="45" font-family="Roboto-Medium, Roboto" font-weight="500"><tspan x="0" y="0">getBanner()</tspan></text><text transform="translate(5362 1183)" fill="#101010" font-size="45" font-family="Roboto-Medium, Roboto" font-weight="500"><tspan x="0" y="0">getCover()</tspan></text><text transform="translate(4283.75 1183)" fill="#101010" font-size="45" font-family="Roboto-Medium, Roboto" font-weight="500"><tspan x="0" y="0">getHeadline()</tspan></text><text transform="translate(3753.5 726)" fill="#101010" font-size="45" font-family="Roboto-Medium, Roboto" font-weight="500"><tspan x="0" y="0">getMail()</tspan></text><text transform="translate(3979 726)" fill="#101010" font-size="45" font-family="Roboto-Medium, Roboto" font-weight="500"><tspan x="0" y="0">getUsername()</tspan></text><text transform="translate(4316 726)" fill="#101010" font-size="45" font-family="Roboto-Medium, Roboto" font-weight="500"><tspan x="0" y="0">getUsername()</tspan></text><text transform="translate(4632 726)" fill="#101010" font-size="45" font-family="Roboto-Medium, Roboto" font-weight="500"><tspan x="0" y="0">getAccessToken()</tspan></text><text transform="translate(5009 726)" fill="#101010" font-size="45" font-family="Roboto-Medium, Roboto" font-weight="500"><tspan x="0" y="0">getClientToken()</tspan></text><text transform="translate(5362 726)" fill="#101010" font-size="45" font-family="Roboto-Medium, Roboto" font-weight="500"><tspan x="0" y="0">getUUID()</tspan></text><text transform="translate(5584 726)" fill="#101010" font-size="45" font-family="Roboto-Medium, Roboto" font-weight="500"><tspan x="0" y="0">isMicrosoft()</tspan></text><text transform="translate(5868 726)" fill="#101010" font-size="45" font-family="Roboto-Medium, Roboto" font-weight="500"><tspan x="0" y="0">login(String, String, Boolean)</tspan></text><text transform="translate(3705 913)" fill="#101010" font-size="45" font-family="Roboto-Medium, Roboto" font-weight="500"><tspan x="0" y="0">getNewModpacks()</tspan></text><text transform="translate(3611 316)" fill="#101010" font-size="35" font-family="Roboto-Regular, Roboto"><tspan x="0" y="0">DiscoveryInfo</tspan></text><text transform="translate(3472 953)" fill="#101010" font-size="35" font-family="Roboto-Regular, Roboto"><tspan x="0" y="0">Array&lt;Slide&gt;</tspan></text><text transform="translate(3547 1228)" fill="#101010" font-size="35" font-family="Roboto-Regular, Roboto"><tspan x="0" y="0">String</tspan></text><text transform="translate(3823.75 1227.5)" fill="#101010" font-size="35" font-family="Roboto-Regular, Roboto"><tspan x="0" y="0">String</tspan></text><text transform="translate(4112.75 1227.5)" fill="#101010" font-size="35" font-family="Roboto-Regular, Roboto"><tspan x="0" y="0">String</tspan></text><text transform="translate(4635.75 1227.5)" fill="#101010" font-size="35" font-family="Roboto-Regular, Roboto"><tspan x="0" y="0">String</tspan></text><text transform="translate(4885.75 1227.5)" fill="#101010" font-size="35" font-family="Roboto-Regular, Roboto"><tspan x="0" y="0">String</tspan></text><text transform="translate(5174.75 1227.5)" fill="#101010" font-size="35" font-family="Roboto-Regular, Roboto"><tspan x="0" y="0">String</tspan></text><text transform="translate(5415 1227.5)" fill="#101010" font-size="35" font-family="Roboto-Regular, Roboto"><tspan x="0" y="0">String</tspan></text><text transform="translate(4375.25 1227.5)" fill="#101010" font-size="35" font-family="Roboto-Regular, Roboto"><tspan x="0" y="0">String</tspan></text><text transform="translate(3799.5 767)" fill="#101010" font-size="35" font-family="Roboto-Regular, Roboto"><tspan x="0" y="0">String</tspan></text><text transform="translate(4084 767)" fill="#101010" font-size="35" font-family="Roboto-Regular, Roboto"><tspan x="0" y="0">String</tspan></text><text transform="translate(4421 767)" fill="#101010" font-size="35" font-family="Roboto-Regular, Roboto"><tspan x="0" y="0">String</tspan></text><text transform="translate(4695 767)" fill="#101010" font-size="35" font-family="Roboto-Regular, Roboto"><tspan x="0" y="0">String</tspan></text><text transform="translate(5130 767)" fill="#101010" font-size="35" font-family="Roboto-Regular, Roboto"><tspan x="0" y="0">String</tspan></text><text transform="translate(5415 767)" fill="#101010" font-size="35" font-family="Roboto-Regular, Roboto"><tspan x="0" y="0">String</tspan></text><text transform="translate(5651 767)" fill="#101010" font-size="35" font-family="Roboto-Regular, Roboto"><tspan x="0" y="0">Boolean</tspan></text><text transform="translate(6093 767)" fill="#101010" font-size="35" font-family="Roboto-Regular, Roboto"><tspan x="0" y="0">Boolean</tspan></text><text transform="translate(3773 953)" fill="#101010" font-size="35" font-family="Roboto-Regular, Roboto"><tspan x="0" y="0">Array&lt;Modpack&gt;</tspan></text><line y1="42" transform="translate(4026.5 187)" fill="none" stroke="#000" stroke-width="5"/><text transform="translate(3883 272)" fill="#101010" font-size="45" font-family="Roboto-Medium, Roboto" font-weight="500"><tspan x="0" y="0">getAccounts()</tspan></text><text transform="translate(3903 316)" fill="#101010" font-size="35" font-family="Roboto-Regular, Roboto"><tspan x="0" y="0">Array&lt;Account&gt;</tspan></text><line y1="42" transform="translate(4348.5 187)" fill="none" stroke="#000" stroke-width="5"/><line y1="42" transform="translate(4230.5 463)" fill="none" stroke="#000" stroke-width="5"/><line y1="42" transform="translate(4518 463)" fill="none" stroke="#000" stroke-width="5"/><line y1="42" transform="translate(4777 463)" fill="none" stroke="#000" stroke-width="5"/><line y1="42" transform="translate(4990 463)" fill="none" stroke="#000" stroke-width="5"/><line y1="42" transform="translate(5191 463)" fill="none" stroke="#000" stroke-width="5"/><text transform="translate(4209 272)" fill="#101010" font-size="45" font-family="Roboto-Medium, Roboto" font-weight="500"><tspan x="0" y="0">getSessions()</tspan></text><text transform="translate(4079 548)" fill="#101010" font-size="45" font-family="Roboto-Medium, Roboto" font-weight="500"><tspan x="0" y="0">getModpack()</tspan></text><text transform="translate(4386 548)" fill="#101010" font-size="45" font-family="Roboto-Medium, Roboto" font-weight="500"><tspan x="0" y="0">getAccount()</tspan></text><text transform="translate(4681 548)" fill="#101010" font-size="45" font-family="Roboto-Medium, Roboto" font-weight="500"><tspan x="0" y="0">isActive()</tspan></text><text transform="translate(4892 548)" fill="#101010" font-size="45" font-family="Roboto-Medium, Roboto" font-weight="500"><tspan x="0" y="0">getStart()</tspan></text><text transform="translate(5105 548)" fill="#101010" font-size="45" font-family="Roboto-Medium, Roboto" font-weight="500"><tspan x="0" y="0">getEnd()</tspan></text><text transform="translate(4229 316)" fill="#101010" font-size="35" font-family="Roboto-Regular, Roboto"><tspan x="0" y="0">Array&lt;Session&gt;</tspan></text><text transform="translate(4158 589)" fill="#101010" font-size="35" font-family="Roboto-Regular, Roboto"><tspan x="0" y="0">Modpack</tspan></text><text transform="translate(4454 589)" fill="#101010" font-size="35" font-family="Roboto-Regular, Roboto"><tspan x="0" y="0">Account</tspan></text><text transform="translate(4714 589)" fill="#101010" font-size="35" font-family="Roboto-Regular, Roboto"><tspan x="0" y="0">Boolean</tspan></text><text transform="translate(4919 589)" fill="#101010" font-size="35" font-family="Roboto-Regular, Roboto"><tspan x="0" y="0">Datetime</tspan></text><text transform="translate(5121 589)" fill="#101010" font-size="35" font-family="Roboto-Regular, Roboto"><tspan x="0" y="0">Datetime</tspan></text><line y1="42" transform="translate(3035.5 187)" fill="none" stroke="#000" stroke-width="5"/><text transform="translate(2856 272)" fill="#101010" font-size="45" font-family="Roboto-Medium, Roboto" font-weight="500"><tspan x="0" y="0">getSetting(String)</tspan></text><text transform="translate(2985.5 316.5)" fill="#101010" font-size="35" font-family="Roboto-Regular, Roboto"><tspan x="0" y="0">Object</tspan></text><line y1="42" transform="translate(3443.5 325.5)" fill="none" stroke="#000" stroke-width="5"/><text transform="translate(3349.5 411)" fill="#101010" font-size="45" font-family="Roboto-Bold, Roboto" font-weight="700"><tspan x="0" y="0">Modpack</tspan></text><text transform="translate(3451 57)" fill="#101010" font-size="60" font-family="Roboto-Bold, Roboto" font-weight="700"><tspan x="0" y="0">CLASS STRUCTURE</tspan></text><line y1="42" transform="translate(3724.5 326)" fill="none" stroke="#000" stroke-width="5"/><text transform="translate(3576.5 411)" fill="#101010" font-size="45" font-family="Roboto-Bold, Roboto" font-weight="700"><tspan x="0" y="0">DiscorveryInfo</tspan></text><text transform="translate(3519.5 1047)" fill="#101010" font-size="45" font-family="Roboto-Bold, Roboto" font-weight="700"><tspan x="0" y="0">Slide</tspan></text><line y1="42" transform="translate(4069.5 325)" fill="none" stroke="#000" stroke-width="5"/><text transform="translate(3985.5 410)" fill="#101010" font-size="45" font-family="Roboto-Bold, Roboto" font-weight="700"><tspan x="0" y="0">Account</tspan></text><line y1="42" transform="translate(4385.5 325)" fill="none" stroke="#000" stroke-width="5"/><line y1="42" transform="translate(4385.5 421)" fill="none" stroke="#000" stroke-width="5"/><line y1="42" transform="translate(1467.25 1533)" fill="none" stroke="#000" stroke-width="5"/><line y1="42" transform="translate(3124.25 1533)" fill="none" stroke="#000" stroke-width="5"/><text transform="translate(4305.5 410)" fill="#101010" font-size="45" font-family="Roboto-Bold, Roboto" font-weight="700"><tspan x="0" y="0">Session</tspan></text><text transform="translate(1398.75 1522)" fill="#101010" font-size="45" font-family="Roboto-Bold, Roboto" font-weight="700"><tspan x="0" y="0">Author</tspan></text><text transform="translate(3025.25 1522)" fill="#101010" font-size="45" font-family="Roboto-Bold, Roboto" font-weight="700"><tspan x="0" y="0">Comment</tspan></text><text transform="translate(4402.75 1522)" fill="#101010" font-size="45" font-family="Roboto-Bold, Roboto" font-weight="700"><tspan x="0" y="0">Stats</tspan></text><text transform="translate(5313.25 1522)" fill="#101010" font-size="45" font-family="Roboto-Bold, Roboto" font-weight="700"><tspan x="0" y="0">News</tspan></text><line y1="872" x2="1.25" transform="translate(3442.25 422.5)" fill="none" stroke="#000" stroke-width="5"/><line y1="42" transform="translate(1222.25 1294.5)" fill="none" stroke="#000" stroke-width="5"/><line y1="42" transform="translate(913.25 1295)" fill="none" stroke="#000" stroke-width="5"/><line y1="42" transform="translate(417.5 1294.5)" fill="none" stroke="#000" stroke-width="5"/><line y1="42" transform="translate(1119.75 1575)" fill="none" stroke="#000" stroke-width="5"/><line y1="42" transform="translate(2875.625 1575)" fill="none" stroke="#000" stroke-width="5"/><line y1="42" transform="translate(3149.625 1575)" fill="none" stroke="#000" stroke-width="5"/><line y1="42" transform="translate(3393.875 1575)" fill="none" stroke="#000" stroke-width="5"/><line y1="42" transform="translate(4275.25 1576)" fill="none" stroke="#000" stroke-width="5"/><line y1="42" transform="translate(4599.25 1576)" fill="none" stroke="#000" stroke-width="5"/><line y1="42" transform="translate(4975.875 1575)" fill="none" stroke="#000" stroke-width="5"/><line y1="42" transform="translate(5223.625 1576)" fill="none" stroke="#000" stroke-width="5"/><line y1="42" transform="translate(5485.125 1576)" fill="none" stroke="#000" stroke-width="5"/><line y1="42" transform="translate(5729.875 1576)" fill="none" stroke="#000" stroke-width="5"/><line y1="42" transform="translate(1423.75 1575)" fill="none" stroke="#000" stroke-width="5"/><line y1="42" transform="translate(1763.75 1575)" fill="none" stroke="#000" stroke-width="5"/><line y1="42" transform="translate(1467.25 1437)" fill="none" stroke="#000" stroke-width="5"/><line y1="42" transform="translate(3124.25 1437)" fill="none" stroke="#000" stroke-width="5"/><line y1="42" transform="translate(4455.25 1437)" fill="none" stroke="#000" stroke-width="5"/><line y1="42" transform="translate(5369.75 1437)" fill="none" stroke="#000" stroke-width="5"/><text transform="translate(1114.75 1388.5)" fill="#101010" font-size="45" font-family="Roboto-Medium, Roboto" font-weight="500"><tspan x="0" y="0">getName()</tspan></text><text transform="translate(738.75 1388.5)" fill="#101010" font-size="45" font-family="Roboto-Medium, Roboto" font-weight="500"><tspan x="0" y="0">getReleaseDate()</tspan></text><text transform="translate(122.75 1388.5)" fill="#101010" font-size="45" font-family="Roboto-Medium, Roboto" font-weight="500"><tspan x="0" y="0">getLastVersionReleaseDate()</tspan></text><text transform="translate(1012.25 1669)" fill="#101010" font-size="45" font-family="Roboto-Medium, Roboto" font-weight="500"><tspan x="0" y="0">getName()</tspan></text><text transform="translate(2760.125 1669)" fill="#101010" font-size="45" font-family="Roboto-Medium, Roboto" font-weight="500"><tspan x="0" y="0">getAuthor()</tspan></text><text transform="translate(3022.125 1669)" fill="#101010" font-size="45" font-family="Roboto-Medium, Roboto" font-weight="500"><tspan x="0" y="0">getContent()</tspan></text><text transform="translate(3299.375 1669)" fill="#101010" font-size="45" font-family="Roboto-Medium, Roboto" font-weight="500"><tspan x="0" y="0">getDate()</tspan></text><text transform="translate(4139.75 1671)" fill="#101010" font-size="45" font-family="Roboto-Medium, Roboto" font-weight="500"><tspan x="0" y="0">getPlaytime()</tspan></text><text transform="translate(4427.75 1671)" fill="#101010" font-size="45" font-family="Roboto-Medium, Roboto" font-weight="500"><tspan x="0" y="0">getLastSession()</tspan></text><text transform="translate(4881.375 1671)" fill="#101010" font-size="45" font-family="Roboto-Medium, Roboto" font-weight="500"><tspan x="0" y="0">getDate()</tspan></text><text transform="translate(5082.125 1672)" fill="#101010" font-size="45" font-family="Roboto-Medium, Roboto" font-weight="500"><tspan x="0" y="0">getModpack()</tspan></text><text transform="translate(5392.125 1671)" fill="#101010" font-size="45" font-family="Roboto-Medium, Roboto" font-weight="500"><tspan x="0" y="0">getTitle()</tspan></text><text transform="translate(5602.125 1672)" fill="#101010" font-size="45" font-family="Roboto-Medium, Roboto" font-weight="500"><tspan x="0" y="0">getContent()</tspan></text><text transform="translate(1270.25 1669)" fill="#101010" font-size="45" font-family="Roboto-Medium, Roboto" font-weight="500"><tspan x="0" y="0">getModpacks()</tspan></text><text transform="translate(1605.25 1669)" fill="#101010" font-size="45" font-family="Roboto-Medium, Roboto" font-weight="500"><tspan x="0" y="0">getComments()</tspan></text><text transform="translate(1177.25 1428)" fill="#101010" font-size="35" font-family="Roboto-Regular, Roboto"><tspan x="0" y="0">String</tspan></text><text transform="translate(842.75 1428)" fill="#101010" font-size="35" font-family="Roboto-Regular, Roboto"><tspan x="0" y="0">Datetime</tspan></text><text transform="translate(347 1428)" fill="#101010" font-size="35" font-family="Roboto-Regular, Roboto"><tspan x="0" y="0">Datetime</tspan></text><text transform="translate(1074.25 1713)" fill="#101010" font-size="35" font-family="Roboto-Regular, Roboto"><tspan x="0" y="0">String</tspan></text><text transform="translate(2823.625 1713)" fill="#101010" font-size="35" font-family="Roboto-Regular, Roboto"><tspan x="0" y="0">Author</tspan></text><text transform="translate(3104.125 1713)" fill="#101010" font-size="35" font-family="Roboto-Regular, Roboto"><tspan x="0" y="0">String</tspan></text><text transform="translate(3348.375 1713)" fill="#101010" font-size="35" font-family="Roboto-Regular, Roboto"><tspan x="0" y="0">String</tspan></text><text transform="translate(4221.75 1716)" fill="#101010" font-size="35" font-family="Roboto-Regular, Roboto"><tspan x="0" y="0">Integer</tspan></text><text transform="translate(4537.75 1716)" fill="#101010" font-size="35" font-family="Roboto-Regular, Roboto"><tspan x="0" y="0">Session</tspan></text><text transform="translate(4905.375 1716)" fill="#101010" font-size="35" font-family="Roboto-Regular, Roboto"><tspan x="0" y="0">Datetime</tspan></text><text transform="translate(5151.125 1716)" fill="#101010" font-size="35" font-family="Roboto-Regular, Roboto"><tspan x="0" y="0">Modpack</tspan></text><text transform="translate(5439.625 1715)" fill="#101010" font-size="35" font-family="Roboto-Regular, Roboto"><tspan x="0" y="0">String</tspan></text><text transform="translate(5684.125 1715)" fill="#101010" font-size="35" font-family="Roboto-Regular, Roboto"><tspan x="0" y="0">String</tspan></text><text transform="translate(1378.25 1713)" fill="#101010" font-size="35" font-family="Roboto-Regular, Roboto"><tspan x="0" y="0">String</tspan></text><text transform="translate(1718.25 1713)" fill="#101010" font-size="35" font-family="Roboto-Regular, Roboto"><tspan x="0" y="0">String</tspan></text><line y1="42" transform="translate(1467.25 1294.5)" fill="none" stroke="#000" stroke-width="5"/><text transform="translate(1344.75 1388.5)" fill="#101010" font-size="45" font-family="Roboto-Medium, Roboto" font-weight="500"><tspan x="0" y="0">getCreator()</tspan></text><text transform="translate(1415.25 1428)" fill="#101010" font-size="35" font-family="Roboto-Regular, Roboto"><tspan x="0" y="0">Author</tspan></text><line y1="42" transform="translate(1733.75 1295)" fill="none" stroke="#000" stroke-width="5"/><line y1="42" transform="translate(2029.25 1294.5)" fill="none" stroke="#000" stroke-width="5"/><text transform="translate(1628.75 1388.5)" fill="#101010" font-size="45" font-family="Roboto-Medium, Roboto" font-weight="500"><tspan x="0" y="0">getMods()</tspan></text><text transform="translate(1868.75 1388.5)" fill="#101010" font-size="45" font-family="Roboto-Medium, Roboto" font-weight="500"><tspan x="0" y="0">getDescription()</tspan></text><text transform="translate(1639.75 1428)" fill="#101010" font-size="35" font-family="Roboto-Regular, Roboto"><tspan x="0" y="0">Array&lt;Mod&gt;</tspan></text><text transform="translate(1854.75 1428)" fill="#101010" font-size="35" font-family="Roboto-Regular, Roboto"><tspan x="0" y="0">String (MD-Formatted)</tspan></text><line y1="42" transform="translate(2370.25 1294.5)" fill="none" stroke="#000" stroke-width="5"/><line y1="42" transform="translate(2703.25 1294.5)" fill="none" stroke="#000" stroke-width="5"/><text transform="translate(2245.25 1388.5)" fill="#101010" font-size="45" font-family="Roboto-Medium, Roboto" font-weight="500"><tspan x="0" y="0">getVersion()</tspan></text><text transform="translate(2519.25 1389)" fill="#101010" font-size="45" font-family="Roboto-Medium, Roboto" font-weight="500"><tspan x="0" y="0">getGameVersion()</tspan></text><text transform="translate(2250.75 1428)" fill="#101010" font-size="35" font-family="Roboto-Regular, Roboto"><tspan x="0" y="0">String (semver)</tspan></text><text transform="translate(2657.75 1428)" fill="#101010" font-size="35" font-family="Roboto-Regular, Roboto"><tspan x="0" y="0">String</tspan></text><line y1="42" transform="translate(3085.25 1294.5)" fill="none" stroke="#000" stroke-width="5"/><text transform="translate(2926.75 1389)" fill="#101010" font-size="45" font-family="Roboto-Medium, Roboto" font-weight="500"><tspan x="0" y="0">getComments()</tspan></text><text transform="translate(2949.75 1428)" fill="#101010" font-size="35" font-family="Roboto-Regular, Roboto"><tspan x="0" y="0">Array&lt;Comment&gt;</tspan></text><line y1="42" transform="translate(3511.75 1294.5)" fill="none" stroke="#000" stroke-width="5"/><text transform="translate(3273.75 1389)" fill="#101010" font-size="45" font-family="Roboto-Medium, Roboto" font-weight="500"><tspan x="0" y="0">getCommentsAmount()</tspan></text><text transform="translate(3457.75 1428)" fill="#101010" font-size="35" font-family="Roboto-Regular, Roboto"><tspan x="0" y="0">Integer</tspan></text><line y1="42" transform="translate(3939.75 1294.5)" fill="none" stroke="#000" stroke-width="5"/><text transform="translate(3779.75 1389)" fill="#101010" font-size="45" font-family="Roboto-Medium, Roboto" font-weight="500"><tspan x="0" y="0">getDownlaods()</tspan></text><text transform="translate(3885.75 1428)" fill="#101010" font-size="35" font-family="Roboto-Regular, Roboto"><tspan x="0" y="0">Integer</tspan></text><text transform="translate(4128.25 1389)" fill="#101010" font-size="45" font-family="Roboto-Medium, Roboto" font-weight="500"><tspan x="0" y="0">getLikes()</tspan></text><line y1="42" transform="translate(4229.25 1294.5)" fill="none" stroke="#000" stroke-width="5"/><text transform="translate(4174.75 1428)" fill="#101010" font-size="35" font-family="Roboto-Regular, Roboto"><tspan x="0" y="0">Integer</tspan></text><line y1="42" transform="translate(4455.25 1294.5)" fill="none" stroke="#000" stroke-width="5"/><text transform="translate(4354.75 1389)" fill="#101010" font-size="45" font-family="Roboto-Medium, Roboto" font-weight="500"><tspan x="0" y="0">getStats()</tspan></text><text transform="translate(4414.75 1428)" fill="#101010" font-size="35" font-family="Roboto-Regular, Roboto"><tspan x="0" y="0">Stats</tspan></text><line y1="42" transform="translate(4681.25 1294.5)" fill="none" stroke="#000" stroke-width="5"/><text transform="translate(4580.75 1389)" fill="#101010" font-size="45" font-family="Roboto-Medium, Roboto" font-weight="500"><tspan x="0" y="0">isInstalled()</tspan></text><text transform="translate(4617.75 1428)" fill="#101010" font-size="35" font-family="Roboto-Regular, Roboto"><tspan x="0" y="0">Boolean</tspan></text><line y1="42" transform="translate(4930.75 1294.5)" fill="none" stroke="#000" stroke-width="5"/><text transform="translate(4853.75 1389)" fill="#101010" font-size="45" font-family="Roboto-Medium, Roboto" font-weight="500"><tspan x="0" y="0">install()</tspan></text><text transform="translate(4867.75 1428)" fill="#101010" font-size="35" font-family="Roboto-Regular, Roboto"><tspan x="0" y="0">Boolean</tspan></text><line y1="42" transform="translate(5094.75 1294.5)" fill="none" stroke="#000" stroke-width="5"/><text transform="translate(5037.75 1389)" fill="#101010" font-size="45" font-family="Roboto-Medium, Roboto" font-weight="500"><tspan x="0" y="0">play()</tspan></text><text transform="translate(5031.75 1428)" fill="#101010" font-size="35" font-family="Roboto-Regular, Roboto"><tspan x="0" y="0">Boolean</tspan></text><line y1="42" transform="translate(5369.25 1294.5)" fill="none" stroke="#000" stroke-width="5"/><text transform="translate(5201.75 1389)" fill="#101010" font-size="45" font-family="Roboto-Medium, Roboto" font-weight="500"><tspan x="0" y="0">getLatestNews()</tspan></text><text transform="translate(5325.75 1428)" fill="#101010" font-size="35" font-family="Roboto-Regular, Roboto"><tspan x="0" y="0">News</tspan></text><line y1="42" transform="translate(5665.25 1294.5)" fill="none" stroke="#000" stroke-width="5"/><text transform="translate(5560.75 1389)" fill="#101010" font-size="45" font-family="Roboto-Medium, Roboto" font-weight="500"><tspan x="0" y="0">getNews()</tspan></text><text transform="translate(5562.75 1428)" fill="#101010" font-size="35" font-family="Roboto-Regular, Roboto"><tspan x="0" y="0">Array&lt;News&gt;</tspan></text><line y1="405" x2="0.5" transform="translate(3721 422.5)" fill="none" stroke="#000" stroke-width="5"/><line x1="1324" transform="translate(3568.5 827.5)" fill="none" stroke="#000" stroke-width="5"/><line x1="2312.5" transform="translate(3845 640.5)" fill="none" stroke="#000" stroke-width="5"/><line x1="962" transform="translate(4230.5 463.5)" fill="none" stroke="#000" stroke-width="5"/><line x1="643" transform="translate(1120.5 1575.5)" fill="none" stroke="#000" stroke-width="5"/><line x1="518" transform="translate(2875.875 1575.5)" fill="none" stroke="#000" stroke-width="5"/><line x1="324" transform="translate(4275.25 1575.5)" fill="none" stroke="#000" stroke-width="5"/><line x1="753.625" transform="translate(4975.875 1575.5)" fill="none" stroke="#000" stroke-width="5"/><line x1="1890" transform="translate(3570.5 1097.5)" fill="none" stroke="#000" stroke-width="5"/><line y1="42" transform="translate(5912.25 1294.5)" fill="none" stroke="#000" stroke-width="5"/><text transform="translate(5807.75 1389)" fill="#101010" font-size="45" font-family="Roboto-Medium, Roboto" font-weight="500"><tspan x="0" y="0">getLogo()</tspan></text><text transform="translate(5866.75 1428)" fill="#101010" font-size="35" font-family="Roboto-Regular, Roboto"><tspan x="0" y="0">String</tspan></text><line y1="42" transform="translate(6110.75 1294.5)" fill="none" stroke="#000" stroke-width="5"/><line y1="42" transform="translate(6324.25 1294.5)" fill="none" stroke="#000" stroke-width="5"/><line y1="42" transform="translate(6535.5 1294.5)" fill="none" stroke="#000" stroke-width="5"/><line y1="42" transform="translate(6913.5 1294.5)" fill="none" stroke="#000" stroke-width="5"/><text transform="translate(6019.25 1389)" fill="#101010" font-size="45" font-family="Roboto-Medium, Roboto" font-weight="500"><tspan x="0" y="0">getIcon()</tspan></text><text transform="translate(6217.75 1389)" fill="#101010" font-size="45" font-family="Roboto-Medium, Roboto" font-weight="500"><tspan x="0" y="0">getCover()</tspan></text><text transform="translate(6485 1389)" fill="#101010" font-size="45" font-family="Roboto-Medium, Roboto" font-weight="500"><tspan x="0" y="0">like()</tspan></text><text transform="translate(6647 1389)" fill="#101010" font-size="45" font-family="Roboto-Medium, Roboto" font-weight="500"><tspan x="0" y="0">comment(Account, String)</tspan></text><text transform="translate(6065.25 1428)" fill="#101010" font-size="35" font-family="Roboto-Regular, Roboto"><tspan x="0" y="0">String</tspan></text><text transform="translate(6278.75 1428)" fill="#101010" font-size="35" font-family="Roboto-Regular, Roboto"><tspan x="0" y="0">String</tspan></text><text transform="translate(6472 1428)" fill="#101010" font-size="35" font-family="Roboto-Regular, Roboto"><tspan x="0" y="0">Boolean</tspan></text><text transform="translate(6850 1428)" fill="#101010" font-size="35" font-family="Roboto-Regular, Roboto"><tspan x="0" y="0">Boolean</tspan></text><line y1="42" transform="translate(4346.5 828)" fill="none" stroke="#000" stroke-width="5"/><text transform="translate(4115 913)" fill="#101010" font-size="45" font-family="Roboto-Medium, Roboto" font-weight="500"><tspan x="0" y="0">getPopularModpacks()</tspan></text><text transform="translate(4218 953)" fill="#101010" font-size="35" font-family="Roboto-Regular, Roboto"><tspan x="0" y="0">Array&lt;Modpack&gt;</tspan></text><line y1="42" transform="translate(4892 828)" fill="none" stroke="#000" stroke-width="5"/><text transform="translate(4591 913)" fill="#101010" font-size="45" font-family="Roboto-Medium, Roboto" font-weight="500"><tspan x="0" y="0">search(String, (String, String))</tspan></text><text transform="translate(4761 948)" fill="#101010" font-size="35" font-family="Roboto-Regular, Roboto"><tspan x="0" y="0">Array&lt;Modpack&gt;</tspan></text><line y1="218" transform="translate(4069.5 422.5)" fill="none" stroke="#000" stroke-width="5"/><line y1="42" transform="translate(3570 1055.5)" fill="none" stroke="#000" stroke-width="5"/><line y1="42" transform="translate(4455.25 1533)" fill="none" stroke="#000" stroke-width="5"/><line y1="42" transform="translate(5369.75 1533)" fill="none" stroke="#000" stroke-width="5"/></g></svg>