<?xml version="1.0" encoding="utf-8"?>
<svg width="123px" height="123px" viewBox="0 0 123 123" version="1.1" xmlns:xlink="http://www.w3.org/1999/xlink" xmlns="http://www.w3.org/2000/svg">
  <defs>
    <path d="M0 61.5C0 27.5345 27.5345 0 61.5 0C95.4655 0 123 27.5345 123 61.5C123 95.4655 95.4655 123 61.5 123C27.5345 123 0 95.4655 0 61.5Z" id="path_1" />
    <path d="M0 32C0 14.3269 14.3269 0 32 0C49.6731 0 64 14.3269 64 32C64 49.6731 49.6731 64 32 64C14.3269 64 0 49.6731 0 32Z" transform="translate(29 29)" id="path_2" />
    <clipPath id="clip_1">
      <use xlink:href="#path_1" />
    </clipPath>
    <clipPath id="clip_2">
      <use xlink:href="#path_2" />
    </clipPath>
  </defs>
  <g id="Group-2">
    <g id="Ellipse">
      <g clip-path="url(#clip_1)">
        <use xlink:href="#path_1" fill="none" stroke="#FFFFFF" stroke-width="10" />
      </g>
    </g>
    <g id="Ellipse-Copy">
      <g clip-path="url(#clip_2)">
        <use xlink:href="#path_2" fill="none" stroke="#FFFFFF" stroke-width="10" />
      </g>
    </g>
    <path d="M0 10C0 4.47715 4.47715 0 10 0C15.5228 0 20 4.47715 20 10C20 15.5228 15.5228 20 10 20C4.47715 20 0 15.5228 0 10Z" transform="translate(92 94)" id="Ellipse-2" fill="#FFFFFF" fill-rule="evenodd" stroke="none" />
    <path d="M0 12.5C0 5.59644 5.59644 0 12.5 0C19.4036 0 25 5.59644 25 12.5C25 19.4036 19.4036 25 12.5 25C5.59644 25 0 19.4036 0 12.5Z" transform="translate(32 27)" id="Ellipse-2-Copy" fill="#FFFFFF" fill-rule="evenodd" stroke="none" />
  </g>
</svg>