<?xml version="1.0" encoding="utf-8"?>
<svg width="624px" height="132px" viewBox="0 0 624 132" version="1.1" xmlns:xlink="http://www.w3.org/1999/xlink" xmlns="http://www.w3.org/2000/svg">
  <defs>
    <path d="M0 61.5C0 27.5345 27.5345 0 61.5 0C95.4655 0 123 27.5345 123 61.5C123 95.4655 95.4655 123 61.5 123C27.5345 123 0 95.4655 0 61.5Z" id="path_1" />
    <path d="M0 32C0 14.3269 14.3269 0 32 0C49.6731 0 64 14.3269 64 32C64 49.6731 49.6731 64 32 64C14.3269 64 0 49.6731 0 32Z" transform="translate(29 29)" id="path_2" />
    <rect width="624" height="132" id="artboard_1" />
    <clipPath id="clip_1">
      <use xlink:href="#artboard_1" clip-rule="evenodd" />
    </clipPath>
    <clipPath id="clip_2">
      <use xlink:href="#path_1" />
    </clipPath>
    <clipPath id="clip_3">
      <use xlink:href="#path_2" />
    </clipPath>
  </defs>
  <g id="Artboard" clip-path="url(#clip_1)">
    <g id="Group" transform="translate(146.5 -27)">
      <g id="UNIVERSE" fill="#FFFFFF">
        <path d="M387.5 106Q379.75 106 373.525 103.325Q367.3 100.65 363.275 95.675Q359.25 90.7 358.05 83.85L368.95 82.2Q370.6 88.8 375.85 92.475Q381.1 96.15 388.1 96.15Q392.45 96.15 396.1 94.775Q399.75 93.4 401.975 90.825Q404.2 88.25 404.2 84.65Q404.2 82.7 403.525 81.2Q402.85 79.7 401.675 78.575Q400.5 77.45 398.825 76.625Q397.15 75.8 395.15 75.2L376.7 69.75Q374 68.95 371.2 67.675Q368.4 66.4 366.075 64.325Q363.75 62.25 362.3 59.175Q360.85 56.1 360.85 51.7Q360.85 45.05 364.275 40.425Q367.7 35.8 373.55 33.425Q379.4 31.05 386.65 31.05Q393.95 31.15 399.725 33.65Q405.5 36.15 409.325 40.825Q413.15 45.5 414.6 52.15L403.4 54.05Q402.65 50 400.2 47.075Q397.75 44.15 394.2 42.575Q390.65 41 386.5 40.95Q382.5 40.85 379.175 42.15Q375.85 43.45 373.875 45.8Q371.9 48.15 371.9 51.2Q371.9 54.2 373.65 56.05Q375.4 57.9 377.975 58.975Q380.55 60.05 383.1 60.75L396.4 64.5Q398.9 65.2 402.075 66.375Q405.25 67.55 408.225 69.65Q411.2 71.75 413.15 75.225Q415.1 78.7 415.1 83.95Q415.1 89.4 412.9 93.525Q410.7 97.65 406.875 100.425Q403.05 103.2 398.05 104.6Q393.05 106 387.5 106ZM20.775 102.525Q27.25 106 35.7 106Q44.15 106 50.625 102.525Q57.1 99.05 60.75 92.75Q64.4 86.45 64.4 78L64.4 32.5L53.8 32.5L53.8 77.45Q53.8 82 52.275 85.5Q50.75 89 48.15 91.35Q45.55 93.7 42.325 94.925Q39.1 96.15 35.7 96.15Q32.35 96.15 29.125 94.95Q25.9 93.75 23.3 91.4Q20.7 89.05 19.15 85.55Q17.6 82.05 17.6 77.45L17.6 32.5L7 32.55L7 78Q7 86.5 10.65 92.775Q14.3 99.05 20.775 102.525ZM78.4 32.5L78.4 104.5L89 104.5L89 50.95L124.45 104.5L135.05 104.5L135.05 32.5L124.45 32.5L124.45 86L89 32.5L78.4 32.5ZM150.05 104.5L150.05 32.5L160.5 32.5L160.5 104.5L150.05 104.5ZM169 32.5L192.4 104.5L207.45 104.5L230.85 32.5L220 32.5L199.8 93.95L179.85 32.5L169 32.5ZM238.35 104.5L238.35 32.5L284.35 32.5L284.35 42.35L248.8 42.35L248.8 62.55L278.35 62.55L278.35 72.4L248.8 72.4L248.8 94.65L284.35 94.65L284.35 104.5L238.35 104.5ZM296.35 32.5L296.35 104.5L306.8 104.5L306.8 78.65L325.922 78.65L338.45 104.5L350.4 104.5L336.803 76.6079Q341.709 74.5357 344.65 70.375Q349.05 64.15 349.05 55.55Q349.05 49.75 347.05 44.95Q345.05 40.15 341.025 37Q337 33.85 331 32.9Q329.6 32.65 328.05 32.575Q326.5 32.5 325.45 32.5L296.35 32.5ZM425.75 32.5L425.75 104.5L471.75 104.5L471.75 94.65L436.2 94.65L436.2 72.4L465.75 72.4L465.75 62.55L436.2 62.55L436.2 42.35L471.75 42.35L471.75 32.5L425.75 32.5ZM325.05 68.75L306.8 68.75L306.8 42.35L325.05 42.35Q326.05 42.35 327.275 42.45Q328.5 42.55 329.6 42.85Q332.8 43.6 334.75 45.625Q336.7 47.65 337.55 50.275Q338.4 52.9 338.4 55.55Q338.4 58.2 337.55 60.85Q336.7 63.5 334.75 65.525Q332.8 67.55 329.6 68.3Q328.5 68.55 327.275 68.65Q326.05 68.75 325.05 68.75Z" />
      </g>
      <g id="LAUNCHER" fill="#FFFFFF" fill-opacity="0.49803922" transform="translate(3.5 103)">
        <path d="M268.6 52.75Q263.225 52.75 259.525 50.3625Q255.825 47.975 253.925 43.75Q252.025 39.525 252.025 34Q252.025 28.475 253.925 24.25Q255.825 20.025 259.525 17.6375Q263.225 15.25 268.6 15.25Q274.875 15.25 278.85 18.4625Q282.825 21.675 284.3 27.075L280.55 28.05Q279.4 23.775 276.425 21.275Q273.45 18.775 268.6 18.775Q264.375 18.775 261.575 20.7Q258.775 22.625 257.362 26.0625Q255.95 29.5 255.9 34Q255.875 38.5 257.288 41.925Q258.7 45.35 261.538 47.2875Q264.375 49.225 268.6 49.225Q273.45 49.225 276.425 46.7125Q279.4 44.2 280.55 39.95L284.3 40.925Q282.825 46.325 278.85 49.5375Q274.875 52.75 268.6 52.75ZM4 16L4 52L24.775 52L24.775 48.475L7.675 48.475L7.675 16L4 16ZM69.925 16L57.525 52L61.35 52L64.3568 43.275L80.3489 43.275L83.375 52L87.2 52L74.8 16L69.925 16ZM136.75 52.75Q132.625 52.75 129.462 51.05Q126.3 49.35 124.5 46.25Q122.7 43.15 122.7 39L122.7 16.025L126.4 16L126.4 38.525Q126.4 41.325 127.35 43.3625Q128.3 45.4 129.837 46.7125Q131.375 48.025 133.2 48.65Q135.025 49.275 136.75 49.275Q138.5 49.275 140.325 48.65Q142.15 48.025 143.675 46.7125Q145.2 45.4 146.15 43.3625Q147.1 41.325 147.1 38.525L147.1 16L150.8 16L150.8 39Q150.8 43.15 149 46.2375Q147.2 49.325 144.038 51.0375Q140.875 52.75 136.75 52.75ZM188.8 16L188.8 52L192.5 52L192.5 22.475L212.325 52L216.025 52L216.025 16L212.325 16L212.325 45.5L192.5 16L188.8 16ZM324.475 16L320.8 16L320.8 52L324.475 52L324.475 35.75L344.375 35.75L344.375 52L348.025 52L348.025 16L344.375 16L344.375 32.225L324.475 32.225L324.475 16ZM386.025 16L408.525 16L408.525 19.525L389.7 19.525L389.7 31.975L405.525 31.975L405.525 35.5L389.7 35.5L389.7 48.475L408.525 48.475L408.525 52L386.025 52L386.025 16ZM459.425 16L445.525 16L445.525 52L449.2 52L449.2 38.325L460.698 38.325L467.325 52L471.55 52L464.453 37.443Q467.007 36.4386 468.575 34.25Q470.725 31.25 470.725 27.175Q470.725 24.35 469.712 22.025Q468.7 19.7 466.737 18.1625Q464.775 16.625 461.95 16.2Q461.275 16.075 460.612 16.0375Q459.95 16 459.425 16ZM459.325 34.825L449.2 34.825L449.2 19.525L459.325 19.525Q459.775 19.525 460.375 19.5625Q460.975 19.6 461.55 19.725Q463.4 20.125 464.587 21.25Q465.775 22.375 466.362 23.9375Q466.95 25.5 466.95 27.175Q466.95 28.85 466.362 30.4Q465.775 31.95 464.587 33.075Q463.4 34.2 461.55 34.6Q460.975 34.725 460.375 34.775Q459.775 34.825 459.325 34.825ZM79.1523 39.825L72.3273 20.147L65.5458 39.825L79.1523 39.825Z" />
      </g>
    </g>
    <g id="Group-2" transform="translate(4 5)">
      <g id="Ellipse">
        <g clip-path="url(#clip_2)">
          <use xlink:href="#path_1" fill="none" stroke="#FFFFFF" stroke-width="10" />
        </g>
      </g>
      <g id="Ellipse-Copy">
        <g clip-path="url(#clip_3)">
          <use xlink:href="#path_2" fill="none" stroke="#FFFFFF" stroke-width="10" />
        </g>
      </g>
      <path d="M0 10C0 4.47715 4.47715 0 10 0C15.5228 0 20 4.47715 20 10C20 15.5228 15.5228 20 10 20C4.47715 20 0 15.5228 0 10Z" transform="translate(92 94)" id="Ellipse-2" fill="#FFFFFF" fill-rule="evenodd" stroke="none" />
      <path d="M0 12.5C0 5.59644 5.59644 0 12.5 0C19.4036 0 25 5.59644 25 12.5C25 19.4036 19.4036 25 12.5 25C5.59644 25 0 19.4036 0 12.5Z" transform="translate(32 27)" id="Ellipse-2-Copy" fill="#FFFFFF" fill-rule="evenodd" stroke="none" />
    </g>
  </g>
</svg>